# xmcd
#
# Track frame offsets: 
#        150
#        17745
#        36578
#        52409
#        69840
#        84191
#        99921
#        116064
#        130659
#        146484
#        160303
#        183600
#        200575
#
# Disc length: 2868 seconds
#
# Revision: 4
# Processed by: cddbd v1.5.1PL0 Copyright (c) Steve Scherf et al.
# Submitted via: ExactAudioCopy v0.95a5
#
DISCID=b60b320d
DTITLE=萤火虫 - 山居岁月
DYEAR=2004
DGENRE=New Age
TTITLE0=山居岁月 Days in a Green Hill
TTITLE1=日光,寂静 Sunlight, Silent
TTITLE2=星光派对 Starlight Party
TTITLE3=说话的鱼 Talking Fish
TTITLE4=天空 Sky
TTITLE5=野姜花露珠 Dews of Flowers
TTITLE6=一个人的雨 A Rain of My won
TTITLE7=萤火虫之舞 Dance of Fireflies
TTITLE8=落叶 Falling Leaves
TTITLE9=仲夏夜 Mid Summer Night
TTITLE10=希望树 The Wishing Tree
TTITLE11=小溪之歌 Song of the Stream
TTITLE12=阳光灿烂的日子 Days of Sunshine
EXTD=YEAR: 2002
EXTT0=
EXTT1=
EXTT2=
EXTT3=
EXTT4=
EXTT5=
EXTT6=
EXTT7=
EXTT8=
EXTT9=
EXTT10=
EXTT11=
EXTT12=
PLAYORDER=
